<mxfile host="www.draw.io" modified="2019-12-05T12:32:45.882Z" agent="Mozilla/5.0 (Windows NT 10.0; Win64; x64) AppleWebKit/537.36 (KHTML, like Gecko) Chrome/78.0.3904.108 Safari/537.36" etag="yVyY_UVdjsLfEgHp3UeU" version="12.3.7" type="github" pages="1">
  <diagram id="p5BU9hymUU23O3TSgvM1" name="Page-1">
    <mxGraphModel dx="2015" dy="2181" grid="1" gridSize="10" guides="1" tooltips="1" connect="1" arrows="1" fold="1" page="1" pageScale="1" pageWidth="827" pageHeight="1169" math="0" shadow="0">
      <root>
        <mxCell id="0"/>
        <mxCell id="1" parent="0"/>
        <mxCell id="aAzarC-H_IoA1S3gir9M-2" value="&lt;font style=&quot;font-size: 14px&quot;&gt;&lt;b&gt;child&lt;/b&gt;&lt;/font&gt;" style="whiteSpace=wrap;html=1;aspect=fixed;fillColor=#fff2cc;strokeColor=#d6b656;" parent="1" vertex="1">
          <mxGeometry x="30" y="20" width="80" height="80" as="geometry"/>
        </mxCell>
        <mxCell id="aAzarC-H_IoA1S3gir9M-10" style="edgeStyle=orthogonalEdgeStyle;rounded=0;orthogonalLoop=1;jettySize=auto;html=1;exitX=0.5;exitY=0;exitDx=0;exitDy=0;entryX=0.5;entryY=0;entryDx=0;entryDy=0;" parent="1" source="aAzarC-H_IoA1S3gir9M-3" target="aAzarC-H_IoA1S3gir9M-8" edge="1">
          <mxGeometry relative="1" as="geometry"/>
        </mxCell>
        <mxCell id="aAzarC-H_IoA1S3gir9M-107" style="edgeStyle=orthogonalEdgeStyle;rounded=0;orthogonalLoop=1;jettySize=auto;html=1;exitX=1;exitY=0.5;exitDx=0;exitDy=0;entryX=1;entryY=0.5;entryDx=0;entryDy=0;" parent="1" source="aAzarC-H_IoA1S3gir9M-3" target="aAzarC-H_IoA1S3gir9M-76" edge="1">
          <mxGeometry relative="1" as="geometry">
            <mxPoint x="390" y="470" as="targetPoint"/>
            <Array as="points">
              <mxPoint x="420" y="61"/>
              <mxPoint x="420" y="381"/>
            </Array>
          </mxGeometry>
        </mxCell>
        <mxCell id="aAzarC-H_IoA1S3gir9M-3" value="&lt;b&gt;enter name and age&lt;/b&gt;" style="ellipse;whiteSpace=wrap;html=1;" parent="1" vertex="1">
          <mxGeometry x="230" y="20" width="120" height="80" as="geometry"/>
        </mxCell>
        <mxCell id="aAzarC-H_IoA1S3gir9M-4" value="" style="endArrow=none;html=1;exitX=1.044;exitY=0.074;exitDx=0;exitDy=0;exitPerimeter=0;entryX=0;entryY=0;entryDx=0;entryDy=0;" parent="1" source="aAzarC-H_IoA1S3gir9M-2" target="aAzarC-H_IoA1S3gir9M-3" edge="1">
          <mxGeometry width="50" height="50" relative="1" as="geometry">
            <mxPoint x="150" y="80" as="sourcePoint"/>
            <mxPoint x="200" y="30" as="targetPoint"/>
          </mxGeometry>
        </mxCell>
        <mxCell id="aAzarC-H_IoA1S3gir9M-9" style="edgeStyle=orthogonalEdgeStyle;rounded=0;orthogonalLoop=1;jettySize=auto;html=1;exitX=1;exitY=0.5;exitDx=0;exitDy=0;entryX=0.5;entryY=1;entryDx=0;entryDy=0;" parent="1" source="aAzarC-H_IoA1S3gir9M-5" target="aAzarC-H_IoA1S3gir9M-8" edge="1">
          <mxGeometry relative="1" as="geometry"/>
        </mxCell>
        <mxCell id="aAzarC-H_IoA1S3gir9M-5" value="&lt;b&gt;enter password&lt;/b&gt;" style="ellipse;whiteSpace=wrap;html=1;" parent="1" vertex="1">
          <mxGeometry x="230" y="130" width="120" height="80" as="geometry"/>
        </mxCell>
        <mxCell id="aAzarC-H_IoA1S3gir9M-7" value="" style="endArrow=none;html=1;exitX=1.011;exitY=0.34;exitDx=0;exitDy=0;exitPerimeter=0;" parent="1" source="aAzarC-H_IoA1S3gir9M-2" target="aAzarC-H_IoA1S3gir9M-5" edge="1">
          <mxGeometry width="50" height="50" relative="1" as="geometry">
            <mxPoint x="30" y="280" as="sourcePoint"/>
            <mxPoint x="80" y="230" as="targetPoint"/>
            <Array as="points"/>
          </mxGeometry>
        </mxCell>
        <mxCell id="aAzarC-H_IoA1S3gir9M-14" style="edgeStyle=orthogonalEdgeStyle;rounded=0;orthogonalLoop=1;jettySize=auto;html=1;exitX=1;exitY=1;exitDx=0;exitDy=0;entryX=-0.004;entryY=0.633;entryDx=0;entryDy=0;entryPerimeter=0;" parent="1" source="aAzarC-H_IoA1S3gir9M-8" target="aAzarC-H_IoA1S3gir9M-13" edge="1">
          <mxGeometry relative="1" as="geometry">
            <Array as="points">
              <mxPoint x="542" y="211"/>
            </Array>
          </mxGeometry>
        </mxCell>
        <mxCell id="aAzarC-H_IoA1S3gir9M-15" style="edgeStyle=orthogonalEdgeStyle;rounded=0;orthogonalLoop=1;jettySize=auto;html=1;exitX=1;exitY=0.5;exitDx=0;exitDy=0;" parent="1" source="aAzarC-H_IoA1S3gir9M-8" target="aAzarC-H_IoA1S3gir9M-12" edge="1">
          <mxGeometry relative="1" as="geometry"/>
        </mxCell>
        <mxCell id="aAzarC-H_IoA1S3gir9M-16" style="edgeStyle=orthogonalEdgeStyle;rounded=0;orthogonalLoop=1;jettySize=auto;html=1;exitX=1;exitY=0;exitDx=0;exitDy=0;entryX=0;entryY=0.5;entryDx=0;entryDy=0;" parent="1" source="aAzarC-H_IoA1S3gir9M-8" target="aAzarC-H_IoA1S3gir9M-11" edge="1">
          <mxGeometry relative="1" as="geometry">
            <Array as="points">
              <mxPoint x="542" y="10"/>
            </Array>
          </mxGeometry>
        </mxCell>
        <mxCell id="aAzarC-H_IoA1S3gir9M-8" value="&lt;b&gt;account&lt;/b&gt;" style="ellipse;whiteSpace=wrap;html=1;" parent="1" vertex="1">
          <mxGeometry x="440" y="60" width="120" height="80" as="geometry"/>
        </mxCell>
        <mxCell id="aAzarC-H_IoA1S3gir9M-21" style="edgeStyle=orthogonalEdgeStyle;rounded=0;orthogonalLoop=1;jettySize=auto;html=1;exitX=1;exitY=0.5;exitDx=0;exitDy=0;" parent="1" source="aAzarC-H_IoA1S3gir9M-11" target="aAzarC-H_IoA1S3gir9M-19" edge="1">
          <mxGeometry relative="1" as="geometry"/>
        </mxCell>
        <mxCell id="aAzarC-H_IoA1S3gir9M-11" value="&lt;b&gt;continue lesson&lt;/b&gt;" style="ellipse;whiteSpace=wrap;html=1;" parent="1" vertex="1">
          <mxGeometry x="690" y="-30" width="120" height="80" as="geometry"/>
        </mxCell>
        <mxCell id="aAzarC-H_IoA1S3gir9M-32" style="edgeStyle=orthogonalEdgeStyle;rounded=0;orthogonalLoop=1;jettySize=auto;html=1;exitX=1;exitY=0.5;exitDx=0;exitDy=0;entryX=0;entryY=0.75;entryDx=0;entryDy=0;" parent="1" source="aAzarC-H_IoA1S3gir9M-12" target="aAzarC-H_IoA1S3gir9M-23" edge="1">
          <mxGeometry relative="1" as="geometry"/>
        </mxCell>
        <mxCell id="aAzarC-H_IoA1S3gir9M-12" value="&lt;font color=&quot;#252525&quot; face=&quot;roboto, arial, sans-serif&quot;&gt;&lt;span style=&quot;font-size: 18px&quot;&gt;&lt;b&gt;exercise&lt;/b&gt;&lt;/span&gt;&lt;/font&gt;" style="ellipse;whiteSpace=wrap;html=1;" parent="1" vertex="1">
          <mxGeometry x="690" y="60" width="120" height="80" as="geometry"/>
        </mxCell>
        <mxCell id="aAzarC-H_IoA1S3gir9M-18" style="edgeStyle=orthogonalEdgeStyle;rounded=0;orthogonalLoop=1;jettySize=auto;html=1;exitX=0;exitY=1;exitDx=0;exitDy=0;" parent="1" source="aAzarC-H_IoA1S3gir9M-13" target="aAzarC-H_IoA1S3gir9M-17" edge="1">
          <mxGeometry relative="1" as="geometry">
            <Array as="points">
              <mxPoint x="650" y="228"/>
            </Array>
          </mxGeometry>
        </mxCell>
        <mxCell id="aAzarC-H_IoA1S3gir9M-13" value="&lt;b&gt;grade&lt;/b&gt;" style="ellipse;whiteSpace=wrap;html=1;" parent="1" vertex="1">
          <mxGeometry x="690" y="160" width="120" height="80" as="geometry"/>
        </mxCell>
        <mxCell id="aAzarC-H_IoA1S3gir9M-17" value="&lt;b&gt;classment&lt;/b&gt;" style="ellipse;whiteSpace=wrap;html=1;" parent="1" vertex="1">
          <mxGeometry x="590" y="330" width="120" height="80" as="geometry"/>
        </mxCell>
        <mxCell id="aAzarC-H_IoA1S3gir9M-22" style="edgeStyle=orthogonalEdgeStyle;rounded=0;orthogonalLoop=1;jettySize=auto;html=1;exitX=1;exitY=0.5;exitDx=0;exitDy=0;entryX=0;entryY=0.5;entryDx=0;entryDy=0;" parent="1" source="aAzarC-H_IoA1S3gir9M-19" target="aAzarC-H_IoA1S3gir9M-20" edge="1">
          <mxGeometry relative="1" as="geometry">
            <Array as="points">
              <mxPoint x="1060"/>
            </Array>
          </mxGeometry>
        </mxCell>
        <mxCell id="aAzarC-H_IoA1S3gir9M-31" style="edgeStyle=orthogonalEdgeStyle;rounded=0;orthogonalLoop=1;jettySize=auto;html=1;exitX=0.5;exitY=1;exitDx=0;exitDy=0;entryX=0.167;entryY=0;entryDx=0;entryDy=0;entryPerimeter=0;" parent="1" source="aAzarC-H_IoA1S3gir9M-19" target="aAzarC-H_IoA1S3gir9M-23" edge="1">
          <mxGeometry relative="1" as="geometry"/>
        </mxCell>
        <mxCell id="aAzarC-H_IoA1S3gir9M-19" value="&lt;b&gt;learn lesson&lt;/b&gt;" style="ellipse;whiteSpace=wrap;html=1;" parent="1" vertex="1">
          <mxGeometry x="940" y="-30" width="120" height="80" as="geometry"/>
        </mxCell>
        <mxCell id="aAzarC-H_IoA1S3gir9M-85" style="edgeStyle=orthogonalEdgeStyle;rounded=0;orthogonalLoop=1;jettySize=auto;html=1;exitX=1;exitY=0.5;exitDx=0;exitDy=0;" parent="1" source="aAzarC-H_IoA1S3gir9M-20" target="aAzarC-H_IoA1S3gir9M-84" edge="1">
          <mxGeometry relative="1" as="geometry"/>
        </mxCell>
        <mxCell id="aAzarC-H_IoA1S3gir9M-20" value="&lt;b&gt;exam&lt;/b&gt;" style="ellipse;whiteSpace=wrap;html=1;" parent="1" vertex="1">
          <mxGeometry x="1170" y="-40" width="120" height="80" as="geometry"/>
        </mxCell>
        <mxCell id="aAzarC-H_IoA1S3gir9M-23" value="&lt;b&gt;Help&lt;/b&gt;" style="rounded=0;whiteSpace=wrap;html=1;" parent="1" vertex="1">
          <mxGeometry x="980" y="120" width="120" height="60" as="geometry"/>
        </mxCell>
        <mxCell id="aAzarC-H_IoA1S3gir9M-24" value="" style="endArrow=none;html=1;entryX=0.5;entryY=0;entryDx=0;entryDy=0;" parent="1" target="aAzarC-H_IoA1S3gir9M-23" edge="1">
          <mxGeometry width="50" height="50" relative="1" as="geometry">
            <mxPoint x="980" y="180" as="sourcePoint"/>
            <mxPoint x="1030" y="130" as="targetPoint"/>
          </mxGeometry>
        </mxCell>
        <mxCell id="aAzarC-H_IoA1S3gir9M-25" value="D1" style="text;html=1;strokeColor=none;fillColor=none;align=center;verticalAlign=middle;whiteSpace=wrap;rounded=0;" parent="1" vertex="1">
          <mxGeometry x="980" y="130" width="40" height="20" as="geometry"/>
        </mxCell>
        <mxCell id="aAzarC-H_IoA1S3gir9M-28" value="" style="endArrow=classic;html=1;" parent="1" edge="1">
          <mxGeometry width="50" height="50" relative="1" as="geometry">
            <mxPoint x="1200" y="30" as="sourcePoint"/>
            <mxPoint x="1080" y="120" as="targetPoint"/>
            <Array as="points">
              <mxPoint x="1150" y="70"/>
            </Array>
          </mxGeometry>
        </mxCell>
        <mxCell id="aAzarC-H_IoA1S3gir9M-33" value="&lt;b&gt;success&lt;/b&gt;" style="rounded=0;whiteSpace=wrap;html=1;" parent="1" vertex="1">
          <mxGeometry x="1380" y="290" width="120" height="60" as="geometry"/>
        </mxCell>
        <mxCell id="aAzarC-H_IoA1S3gir9M-34" value="" style="endArrow=none;html=1;entryX=0.5;entryY=0;entryDx=0;entryDy=0;" parent="1" edge="1">
          <mxGeometry width="50" height="50" relative="1" as="geometry">
            <mxPoint x="1380" y="350" as="sourcePoint"/>
            <mxPoint x="1440" y="290" as="targetPoint"/>
          </mxGeometry>
        </mxCell>
        <mxCell id="aAzarC-H_IoA1S3gir9M-35" value="D3" style="text;html=1;strokeColor=none;fillColor=none;align=center;verticalAlign=middle;whiteSpace=wrap;rounded=0;" parent="1" vertex="1">
          <mxGeometry x="1370" y="300" width="40" height="20" as="geometry"/>
        </mxCell>
        <mxCell id="aAzarC-H_IoA1S3gir9M-38" value="&lt;b&gt;new child&lt;/b&gt;" style="ellipse;whiteSpace=wrap;html=1;" parent="1" vertex="1">
          <mxGeometry x="600" y="530" width="120" height="80" as="geometry"/>
        </mxCell>
        <mxCell id="aAzarC-H_IoA1S3gir9M-40" style="edgeStyle=orthogonalEdgeStyle;rounded=0;orthogonalLoop=1;jettySize=auto;html=1;exitX=0.5;exitY=0;exitDx=0;exitDy=0;entryX=0.5;entryY=1;entryDx=0;entryDy=0;" parent="1" source="aAzarC-H_IoA1S3gir9M-39" target="aAzarC-H_IoA1S3gir9M-38" edge="1">
          <mxGeometry relative="1" as="geometry"/>
        </mxCell>
        <mxCell id="aAzarC-H_IoA1S3gir9M-59" style="edgeStyle=orthogonalEdgeStyle;rounded=0;orthogonalLoop=1;jettySize=auto;html=1;exitX=1;exitY=1;exitDx=0;exitDy=0;entryX=0;entryY=0.5;entryDx=0;entryDy=0;" parent="1" source="aAzarC-H_IoA1S3gir9M-39" target="aAzarC-H_IoA1S3gir9M-58" edge="1">
          <mxGeometry relative="1" as="geometry">
            <Array as="points">
              <mxPoint x="702" y="908"/>
            </Array>
          </mxGeometry>
        </mxCell>
        <mxCell id="aAzarC-H_IoA1S3gir9M-60" style="edgeStyle=orthogonalEdgeStyle;rounded=0;orthogonalLoop=1;jettySize=auto;html=1;exitX=1;exitY=1;exitDx=0;exitDy=0;entryX=-0.002;entryY=0.647;entryDx=0;entryDy=0;entryPerimeter=0;" parent="1" source="aAzarC-H_IoA1S3gir9M-39" target="aAzarC-H_IoA1S3gir9M-57" edge="1">
          <mxGeometry relative="1" as="geometry"/>
        </mxCell>
        <mxCell id="aAzarC-H_IoA1S3gir9M-61" style="edgeStyle=orthogonalEdgeStyle;rounded=0;orthogonalLoop=1;jettySize=auto;html=1;exitX=1;exitY=0.5;exitDx=0;exitDy=0;" parent="1" source="aAzarC-H_IoA1S3gir9M-39" target="aAzarC-H_IoA1S3gir9M-56" edge="1">
          <mxGeometry relative="1" as="geometry"/>
        </mxCell>
        <mxCell id="aAzarC-H_IoA1S3gir9M-62" style="edgeStyle=orthogonalEdgeStyle;rounded=0;orthogonalLoop=1;jettySize=auto;html=1;exitX=1;exitY=0;exitDx=0;exitDy=0;entryX=0;entryY=0.5;entryDx=0;entryDy=0;" parent="1" source="aAzarC-H_IoA1S3gir9M-39" target="aAzarC-H_IoA1S3gir9M-55" edge="1">
          <mxGeometry relative="1" as="geometry"/>
        </mxCell>
        <mxCell id="aAzarC-H_IoA1S3gir9M-39" value="&lt;b&gt;fount&lt;/b&gt;" style="ellipse;whiteSpace=wrap;html=1;" parent="1" vertex="1">
          <mxGeometry x="600" y="660" width="120" height="80" as="geometry"/>
        </mxCell>
        <mxCell id="aAzarC-H_IoA1S3gir9M-45" value="&lt;b&gt;parent&lt;/b&gt;" style="whiteSpace=wrap;html=1;aspect=fixed;fillColor=#fff2cc;strokeColor=#d6b656;" parent="1" vertex="1">
          <mxGeometry x="240" y="690" width="80" height="80" as="geometry"/>
        </mxCell>
        <mxCell id="aAzarC-H_IoA1S3gir9M-51" style="edgeStyle=orthogonalEdgeStyle;rounded=0;orthogonalLoop=1;jettySize=auto;html=1;exitX=1;exitY=0;exitDx=0;exitDy=0;entryX=0.309;entryY=0.017;entryDx=0;entryDy=0;entryPerimeter=0;" parent="1" source="aAzarC-H_IoA1S3gir9M-48" target="aAzarC-H_IoA1S3gir9M-39" edge="1">
          <mxGeometry relative="1" as="geometry"/>
        </mxCell>
        <mxCell id="aAzarC-H_IoA1S3gir9M-48" value="&lt;b&gt;user&lt;/b&gt;" style="ellipse;whiteSpace=wrap;html=1;" parent="1" vertex="1">
          <mxGeometry x="400" y="620" width="120" height="80" as="geometry"/>
        </mxCell>
        <mxCell id="aAzarC-H_IoA1S3gir9M-52" style="edgeStyle=orthogonalEdgeStyle;rounded=0;orthogonalLoop=1;jettySize=auto;html=1;exitX=1;exitY=0.5;exitDx=0;exitDy=0;entryX=0.5;entryY=1;entryDx=0;entryDy=0;" parent="1" source="aAzarC-H_IoA1S3gir9M-50" target="aAzarC-H_IoA1S3gir9M-39" edge="1">
          <mxGeometry relative="1" as="geometry">
            <Array as="points">
              <mxPoint x="660" y="780"/>
            </Array>
          </mxGeometry>
        </mxCell>
        <mxCell id="aAzarC-H_IoA1S3gir9M-50" value="&lt;b&gt;password&lt;/b&gt;" style="ellipse;whiteSpace=wrap;html=1;" parent="1" vertex="1">
          <mxGeometry x="400" y="740" width="120" height="80" as="geometry"/>
        </mxCell>
        <mxCell id="aAzarC-H_IoA1S3gir9M-53" value="" style="endArrow=none;html=1;entryX=0.035;entryY=0.672;entryDx=0;entryDy=0;entryPerimeter=0;" parent="1" target="aAzarC-H_IoA1S3gir9M-48" edge="1">
          <mxGeometry width="50" height="50" relative="1" as="geometry">
            <mxPoint x="320" y="705" as="sourcePoint"/>
            <mxPoint x="375" y="655" as="targetPoint"/>
          </mxGeometry>
        </mxCell>
        <mxCell id="aAzarC-H_IoA1S3gir9M-54" value="" style="endArrow=none;html=1;entryX=0;entryY=0.5;entryDx=0;entryDy=0;" parent="1" target="aAzarC-H_IoA1S3gir9M-50" edge="1">
          <mxGeometry width="50" height="50" relative="1" as="geometry">
            <mxPoint x="320" y="751" as="sourcePoint"/>
            <mxPoint x="404.20000000000005" y="719.7600000000002" as="targetPoint"/>
          </mxGeometry>
        </mxCell>
        <mxCell id="aAzarC-H_IoA1S3gir9M-55" value="&lt;b&gt;review&amp;nbsp;&lt;/b&gt;" style="ellipse;whiteSpace=wrap;html=1;" parent="1" vertex="1">
          <mxGeometry x="790" y="563" width="120" height="80" as="geometry"/>
        </mxCell>
        <mxCell id="aAzarC-H_IoA1S3gir9M-56" value="&lt;b&gt;child grade&lt;/b&gt;" style="ellipse;whiteSpace=wrap;html=1;" parent="1" vertex="1">
          <mxGeometry x="790" y="661" width="120" height="80" as="geometry"/>
        </mxCell>
        <mxCell id="aAzarC-H_IoA1S3gir9M-64" style="edgeStyle=orthogonalEdgeStyle;rounded=0;orthogonalLoop=1;jettySize=auto;html=1;exitX=1;exitY=0.5;exitDx=0;exitDy=0;entryX=0;entryY=0.5;entryDx=0;entryDy=0;" parent="1" source="aAzarC-H_IoA1S3gir9M-57" target="aAzarC-H_IoA1S3gir9M-63" edge="1">
          <mxGeometry relative="1" as="geometry"/>
        </mxCell>
        <mxCell id="aAzarC-H_IoA1S3gir9M-57" value="&lt;b&gt;mail&lt;/b&gt;" style="ellipse;whiteSpace=wrap;html=1;" parent="1" vertex="1">
          <mxGeometry x="790" y="758" width="120" height="80" as="geometry"/>
        </mxCell>
        <mxCell id="aAzarC-H_IoA1S3gir9M-58" value="&lt;b&gt;invite&lt;/b&gt;" style="ellipse;whiteSpace=wrap;html=1;" parent="1" vertex="1">
          <mxGeometry x="790" y="868" width="120" height="80" as="geometry"/>
        </mxCell>
        <mxCell id="aAzarC-H_IoA1S3gir9M-63" value="&lt;b&gt;homework&lt;/b&gt;" style="ellipse;whiteSpace=wrap;html=1;" parent="1" vertex="1">
          <mxGeometry x="980" y="758" width="120" height="80" as="geometry"/>
        </mxCell>
        <mxCell id="aAzarC-H_IoA1S3gir9M-65" value="" style="curved=1;endArrow=classic;html=1;" parent="1" edge="1">
          <mxGeometry width="50" height="50" relative="1" as="geometry">
            <mxPoint x="810" y="210" as="sourcePoint"/>
            <mxPoint x="800" y="30" as="targetPoint"/>
            <Array as="points">
              <mxPoint x="860" y="210"/>
              <mxPoint x="880" y="120"/>
            </Array>
          </mxGeometry>
        </mxCell>
        <mxCell id="aAzarC-H_IoA1S3gir9M-75" style="edgeStyle=orthogonalEdgeStyle;rounded=0;orthogonalLoop=1;jettySize=auto;html=1;exitX=0;exitY=0.5;exitDx=0;exitDy=0;entryX=0.33;entryY=0.952;entryDx=0;entryDy=0;entryPerimeter=0;" parent="1" source="aAzarC-H_IoA1S3gir9M-66" target="aAzarC-H_IoA1S3gir9M-76" edge="1">
          <mxGeometry relative="1" as="geometry">
            <mxPoint x="100" y="511" as="targetPoint"/>
            <Array as="points">
              <mxPoint x="1291" y="1151"/>
              <mxPoint x="80" y="1151"/>
            </Array>
          </mxGeometry>
        </mxCell>
        <mxCell id="aAzarC-H_IoA1S3gir9M-79" value="DELETE USER / HOW MOCH USERS" style="text;html=1;align=center;verticalAlign=middle;resizable=0;points=[];;labelBackgroundColor=#ffffff;" parent="aAzarC-H_IoA1S3gir9M-75" vertex="1" connectable="0">
          <mxGeometry x="-0.7762" relative="1" as="geometry">
            <mxPoint as="offset"/>
          </mxGeometry>
        </mxCell>
        <mxCell id="aAzarC-H_IoA1S3gir9M-80" style="edgeStyle=orthogonalEdgeStyle;rounded=0;orthogonalLoop=1;jettySize=auto;html=1;exitX=0.5;exitY=0;exitDx=0;exitDy=0;entryX=0.388;entryY=1.01;entryDx=0;entryDy=0;entryPerimeter=0;" parent="1" source="aAzarC-H_IoA1S3gir9M-66" target="aAzarC-H_IoA1S3gir9M-23" edge="1">
          <mxGeometry relative="1" as="geometry">
            <Array as="points">
              <mxPoint x="1350" y="661"/>
              <mxPoint x="1027" y="661"/>
            </Array>
          </mxGeometry>
        </mxCell>
        <mxCell id="aAzarC-H_IoA1S3gir9M-83" value="FOR NOW HOW MUCH HELP IS GOOD&amp;nbsp;" style="text;html=1;align=center;verticalAlign=middle;resizable=0;points=[];;labelBackgroundColor=#ffffff;" parent="aAzarC-H_IoA1S3gir9M-80" vertex="1" connectable="0">
          <mxGeometry x="0.2918" y="-5" relative="1" as="geometry">
            <mxPoint as="offset"/>
          </mxGeometry>
        </mxCell>
        <mxCell id="aAzarC-H_IoA1S3gir9M-81" style="edgeStyle=orthogonalEdgeStyle;rounded=0;orthogonalLoop=1;jettySize=auto;html=1;exitX=0.5;exitY=0;exitDx=0;exitDy=0;" parent="1" source="aAzarC-H_IoA1S3gir9M-66" target="aAzarC-H_IoA1S3gir9M-33" edge="1">
          <mxGeometry relative="1" as="geometry">
            <Array as="points">
              <mxPoint x="1350" y="661"/>
              <mxPoint x="1440" y="661"/>
            </Array>
          </mxGeometry>
        </mxCell>
        <mxCell id="aAzarC-H_IoA1S3gir9M-82" value="FOR KNOW EXAM LESSON IS" style="text;html=1;align=center;verticalAlign=middle;resizable=0;points=[];;labelBackgroundColor=#ffffff;" parent="aAzarC-H_IoA1S3gir9M-81" vertex="1" connectable="0">
          <mxGeometry x="0.3712" y="-5" relative="1" as="geometry">
            <mxPoint as="offset"/>
          </mxGeometry>
        </mxCell>
        <mxCell id="aAzarC-H_IoA1S3gir9M-104" style="edgeStyle=orthogonalEdgeStyle;rounded=0;orthogonalLoop=1;jettySize=auto;html=1;exitX=0;exitY=0;exitDx=0;exitDy=0;entryX=1;entryY=1;entryDx=0;entryDy=0;" parent="1" source="aAzarC-H_IoA1S3gir9M-66" target="aAzarC-H_IoA1S3gir9M-55" edge="1">
          <mxGeometry relative="1" as="geometry">
            <mxPoint x="1200" y="710" as="targetPoint"/>
            <Array as="points">
              <mxPoint x="1270" y="1131"/>
              <mxPoint x="1270" y="711"/>
              <mxPoint x="970" y="711"/>
              <mxPoint x="970" y="661"/>
              <mxPoint x="893" y="661"/>
            </Array>
          </mxGeometry>
        </mxCell>
        <mxCell id="aAzarC-H_IoA1S3gir9M-66" value="&lt;b&gt;account&lt;/b&gt;" style="ellipse;whiteSpace=wrap;html=1;" parent="1" vertex="1">
          <mxGeometry x="1330" y="810" width="120" height="80" as="geometry"/>
        </mxCell>
        <mxCell id="aAzarC-H_IoA1S3gir9M-74" style="edgeStyle=orthogonalEdgeStyle;rounded=0;orthogonalLoop=1;jettySize=auto;html=1;exitX=0;exitY=0.5;exitDx=0;exitDy=0;" parent="1" source="aAzarC-H_IoA1S3gir9M-67" target="aAzarC-H_IoA1S3gir9M-66" edge="1">
          <mxGeometry relative="1" as="geometry">
            <Array as="points">
              <mxPoint x="1560" y="761"/>
              <mxPoint x="1470" y="761"/>
              <mxPoint x="1470" y="851"/>
            </Array>
          </mxGeometry>
        </mxCell>
        <mxCell id="aAzarC-H_IoA1S3gir9M-67" value="&lt;b&gt;user name&lt;/b&gt;" style="ellipse;whiteSpace=wrap;html=1;" parent="1" vertex="1">
          <mxGeometry x="1560" y="730" width="120" height="80" as="geometry"/>
        </mxCell>
        <mxCell id="aAzarC-H_IoA1S3gir9M-73" style="edgeStyle=orthogonalEdgeStyle;rounded=0;orthogonalLoop=1;jettySize=auto;html=1;exitX=0;exitY=0.5;exitDx=0;exitDy=0;" parent="1" source="aAzarC-H_IoA1S3gir9M-68" target="aAzarC-H_IoA1S3gir9M-66" edge="1">
          <mxGeometry relative="1" as="geometry"/>
        </mxCell>
        <mxCell id="aAzarC-H_IoA1S3gir9M-68" value="password" style="ellipse;whiteSpace=wrap;html=1;fontStyle=1" parent="1" vertex="1">
          <mxGeometry x="1500" y="940" width="120" height="80" as="geometry"/>
        </mxCell>
        <mxCell id="aAzarC-H_IoA1S3gir9M-91" style="edgeStyle=orthogonalEdgeStyle;rounded=0;orthogonalLoop=1;jettySize=auto;html=1;exitX=0.5;exitY=0;exitDx=0;exitDy=0;entryX=1;entryY=0.627;entryDx=0;entryDy=0;entryPerimeter=0;" parent="1" source="aAzarC-H_IoA1S3gir9M-69" target="aAzarC-H_IoA1S3gir9M-11" edge="1">
          <mxGeometry relative="1" as="geometry">
            <mxPoint x="890" y="20" as="targetPoint"/>
            <Array as="points">
              <mxPoint x="1120" y="520"/>
              <mxPoint x="920" y="520"/>
              <mxPoint x="920" y="20"/>
            </Array>
          </mxGeometry>
        </mxCell>
        <mxCell id="aAzarC-H_IoA1S3gir9M-92" style="edgeStyle=orthogonalEdgeStyle;rounded=0;orthogonalLoop=1;jettySize=auto;html=1;exitX=0.5;exitY=0;exitDx=0;exitDy=0;" parent="1" source="aAzarC-H_IoA1S3gir9M-69" edge="1">
          <mxGeometry relative="1" as="geometry">
            <mxPoint x="801" y="120" as="targetPoint"/>
            <Array as="points">
              <mxPoint x="1120" y="545"/>
              <mxPoint x="840" y="545"/>
              <mxPoint x="840" y="120"/>
            </Array>
          </mxGeometry>
        </mxCell>
        <mxCell id="aAzarC-H_IoA1S3gir9M-93" style="edgeStyle=orthogonalEdgeStyle;rounded=0;orthogonalLoop=1;jettySize=auto;html=1;exitX=0.5;exitY=0;exitDx=0;exitDy=0;entryX=0.5;entryY=1;entryDx=0;entryDy=0;" parent="1" source="aAzarC-H_IoA1S3gir9M-69" target="aAzarC-H_IoA1S3gir9M-13" edge="1">
          <mxGeometry relative="1" as="geometry">
            <Array as="points">
              <mxPoint x="1120" y="559"/>
              <mxPoint x="752" y="559"/>
            </Array>
          </mxGeometry>
        </mxCell>
        <mxCell id="aAzarC-H_IoA1S3gir9M-94" value="make a new exercise" style="text;html=1;align=center;verticalAlign=middle;resizable=0;points=[];;labelBackgroundColor=#ffffff;" parent="aAzarC-H_IoA1S3gir9M-93" vertex="1" connectable="0">
          <mxGeometry x="-0.7689" y="3" relative="1" as="geometry">
            <mxPoint as="offset"/>
          </mxGeometry>
        </mxCell>
        <mxCell id="aAzarC-H_IoA1S3gir9M-69" value="&lt;b&gt;workers&lt;/b&gt;" style="ellipse;whiteSpace=wrap;html=1;" parent="1" vertex="1">
          <mxGeometry x="1060" y="1020" width="120" height="80" as="geometry"/>
        </mxCell>
        <mxCell id="aAzarC-H_IoA1S3gir9M-96" style="edgeStyle=orthogonalEdgeStyle;rounded=0;orthogonalLoop=1;jettySize=auto;html=1;exitX=0.5;exitY=0;exitDx=0;exitDy=0;entryX=1;entryY=1;entryDx=0;entryDy=0;" parent="1" source="aAzarC-H_IoA1S3gir9M-70" target="aAzarC-H_IoA1S3gir9M-57" edge="1">
          <mxGeometry relative="1" as="geometry">
            <mxPoint x="950" y="830" as="targetPoint"/>
            <Array as="points">
              <mxPoint x="1900" y="931"/>
              <mxPoint x="1730" y="931"/>
              <mxPoint x="1730" y="740"/>
              <mxPoint x="970" y="740"/>
              <mxPoint x="970" y="831"/>
              <mxPoint x="892" y="831"/>
            </Array>
          </mxGeometry>
        </mxCell>
        <mxCell id="aAzarC-H_IoA1S3gir9M-97" value="NEW UPDATE EXERCISE LESSON" style="text;html=1;align=center;verticalAlign=middle;resizable=0;points=[];;labelBackgroundColor=#ffffff;" parent="aAzarC-H_IoA1S3gir9M-96" vertex="1" connectable="0">
          <mxGeometry x="-0.2102" y="-5" relative="1" as="geometry">
            <mxPoint x="1" as="offset"/>
          </mxGeometry>
        </mxCell>
        <mxCell id="aAzarC-H_IoA1S3gir9M-98" style="edgeStyle=orthogonalEdgeStyle;rounded=0;orthogonalLoop=1;jettySize=auto;html=1;exitX=0.5;exitY=1;exitDx=0;exitDy=0;entryX=0.145;entryY=1.041;entryDx=0;entryDy=0;entryPerimeter=0;" parent="1" source="aAzarC-H_IoA1S3gir9M-70" target="aAzarC-H_IoA1S3gir9M-76" edge="1">
          <mxGeometry relative="1" as="geometry">
            <mxPoint x="60" y="420" as="targetPoint"/>
            <Array as="points">
              <mxPoint x="1730" y="1341"/>
              <mxPoint x="57" y="1341"/>
            </Array>
          </mxGeometry>
        </mxCell>
        <mxCell id="aAzarC-H_IoA1S3gir9M-99" value="WHERE THE USER IN WORK" style="text;html=1;align=center;verticalAlign=middle;resizable=0;points=[];;labelBackgroundColor=#ffffff;" parent="aAzarC-H_IoA1S3gir9M-98" vertex="1" connectable="0">
          <mxGeometry x="-0.5967" y="-1" relative="1" as="geometry">
            <mxPoint as="offset"/>
          </mxGeometry>
        </mxCell>
        <mxCell id="aAzarC-H_IoA1S3gir9M-103" style="edgeStyle=orthogonalEdgeStyle;rounded=0;orthogonalLoop=1;jettySize=auto;html=1;exitX=0.25;exitY=1;exitDx=0;exitDy=0;entryX=0.5;entryY=1;entryDx=0;entryDy=0;" parent="1" source="aAzarC-H_IoA1S3gir9M-70" target="aAzarC-H_IoA1S3gir9M-69" edge="1">
          <mxGeometry relative="1" as="geometry">
            <mxPoint x="1150" y="1221" as="targetPoint"/>
            <Array as="points">
              <mxPoint x="1710" y="1311"/>
              <mxPoint x="1120" y="1311"/>
            </Array>
          </mxGeometry>
        </mxCell>
        <mxCell id="aAzarC-H_IoA1S3gir9M-110" style="edgeStyle=orthogonalEdgeStyle;rounded=0;orthogonalLoop=1;jettySize=auto;html=1;exitX=0.5;exitY=0;exitDx=0;exitDy=0;entryX=1;entryY=0.5;entryDx=0;entryDy=0;" parent="1" source="aAzarC-H_IoA1S3gir9M-70" target="aAzarC-H_IoA1S3gir9M-67" edge="1">
          <mxGeometry relative="1" as="geometry"/>
        </mxCell>
        <mxCell id="aAzarC-H_IoA1S3gir9M-112" style="edgeStyle=orthogonalEdgeStyle;rounded=0;orthogonalLoop=1;jettySize=auto;html=1;exitX=0;exitY=0.5;exitDx=0;exitDy=0;entryX=1;entryY=0;entryDx=0;entryDy=0;" parent="1" source="aAzarC-H_IoA1S3gir9M-70" target="aAzarC-H_IoA1S3gir9M-68" edge="1">
          <mxGeometry relative="1" as="geometry"/>
        </mxCell>
        <mxCell id="aAzarC-H_IoA1S3gir9M-70" value="&lt;b&gt;ADMIN&lt;/b&gt;" style="whiteSpace=wrap;html=1;aspect=fixed;fillColor=#fff2cc;strokeColor=#d6b656;" parent="1" vertex="1">
          <mxGeometry x="1830" y="908" width="80" height="80" as="geometry"/>
        </mxCell>
        <mxCell id="aAzarC-H_IoA1S3gir9M-76" value="&lt;b&gt;USER&lt;br&gt;ACCOUNT&lt;/b&gt;" style="rounded=0;whiteSpace=wrap;html=1;" parent="1" vertex="1">
          <mxGeometry x="40" y="350" width="120" height="60" as="geometry"/>
        </mxCell>
        <mxCell id="aAzarC-H_IoA1S3gir9M-77" value="" style="endArrow=none;html=1;entryX=0.352;entryY=0.033;entryDx=0;entryDy=0;entryPerimeter=0;" parent="1" target="aAzarC-H_IoA1S3gir9M-76" edge="1">
          <mxGeometry width="50" height="50" relative="1" as="geometry">
            <mxPoint x="40" y="410" as="sourcePoint"/>
            <mxPoint x="90" y="360" as="targetPoint"/>
          </mxGeometry>
        </mxCell>
        <mxCell id="aAzarC-H_IoA1S3gir9M-78" value="D2" style="text;html=1;strokeColor=none;fillColor=none;align=center;verticalAlign=middle;whiteSpace=wrap;rounded=0;" parent="1" vertex="1">
          <mxGeometry x="40" y="360" width="40" height="20" as="geometry"/>
        </mxCell>
        <mxCell id="aAzarC-H_IoA1S3gir9M-86" style="edgeStyle=orthogonalEdgeStyle;rounded=0;orthogonalLoop=1;jettySize=auto;html=1;exitX=0.5;exitY=1;exitDx=0;exitDy=0;" parent="1" source="aAzarC-H_IoA1S3gir9M-84" edge="1">
          <mxGeometry relative="1" as="geometry">
            <mxPoint x="1440" y="290" as="targetPoint"/>
          </mxGeometry>
        </mxCell>
        <mxCell id="aAzarC-H_IoA1S3gir9M-89" style="edgeStyle=orthogonalEdgeStyle;rounded=0;orthogonalLoop=1;jettySize=auto;html=1;exitX=0;exitY=1;exitDx=0;exitDy=0;entryX=1;entryY=1;entryDx=0;entryDy=0;" parent="1" source="aAzarC-H_IoA1S3gir9M-84" target="aAzarC-H_IoA1S3gir9M-13" edge="1">
          <mxGeometry relative="1" as="geometry">
            <mxPoint x="1110" y="221" as="targetPoint"/>
            <Array as="points">
              <mxPoint x="1397" y="221"/>
              <mxPoint x="1270" y="221"/>
              <mxPoint x="1270" y="228"/>
            </Array>
          </mxGeometry>
        </mxCell>
        <mxCell id="aAzarC-H_IoA1S3gir9M-90" value="new grade with good question" style="text;html=1;align=center;verticalAlign=middle;resizable=0;points=[];;labelBackgroundColor=#ffffff;" parent="aAzarC-H_IoA1S3gir9M-89" vertex="1" connectable="0">
          <mxGeometry x="-0.0989" y="3" relative="1" as="geometry">
            <mxPoint as="offset"/>
          </mxGeometry>
        </mxCell>
        <mxCell id="aAzarC-H_IoA1S3gir9M-84" value="&lt;b&gt;Question&lt;/b&gt;" style="ellipse;whiteSpace=wrap;html=1;" parent="1" vertex="1">
          <mxGeometry x="1380" y="-41" width="120" height="80" as="geometry"/>
        </mxCell>
        <mxCell id="aAzarC-H_IoA1S3gir9M-105" value="" style="endArrow=none;html=1;entryX=0;entryY=0.5;entryDx=0;entryDy=0;exitX=0;exitY=0.5;exitDx=0;exitDy=0;" parent="1" source="aAzarC-H_IoA1S3gir9M-3" target="aAzarC-H_IoA1S3gir9M-38" edge="1">
          <mxGeometry width="50" height="50" relative="1" as="geometry">
            <mxPoint x="180" y="50" as="sourcePoint"/>
            <mxPoint x="460" y="480" as="targetPoint"/>
            <Array as="points">
              <mxPoint x="180" y="70"/>
              <mxPoint x="220" y="570"/>
            </Array>
          </mxGeometry>
        </mxCell>
        <mxCell id="aAzarC-H_IoA1S3gir9M-106" value="" style="endArrow=none;html=1;entryX=0;entryY=0;entryDx=0;entryDy=0;" parent="1" source="aAzarC-H_IoA1S3gir9M-5" target="aAzarC-H_IoA1S3gir9M-38" edge="1">
          <mxGeometry width="50" height="50" relative="1" as="geometry">
            <mxPoint x="410" y="435" as="sourcePoint"/>
            <mxPoint x="460" y="385" as="targetPoint"/>
            <Array as="points">
              <mxPoint x="300" y="530"/>
            </Array>
          </mxGeometry>
        </mxCell>
      </root>
    </mxGraphModel>
  </diagram>
</mxfile>
